<?xml version="1.0" encoding="UTF-8" standalone="no" ?>
<!DOCTYPE svg PUBLIC "-//W3C//DTD SVG 1.1//EN" "http://www.w3.org/Graphics/SVG/1.1/DTD/svg11.dtd">
<svg xmlns="http://www.w3.org/2000/svg" xmlns:xlink="http://www.w3.org/1999/xlink" version="1.1" width="1200" height="500" viewBox="-350 0 1200 500" xml:space="preserve">
<desc>Created with Fabric.js 4.6.0</desc>
<defs>
</defs>
<g transform="matrix(4.05 0 0 0.96 637.86 268.48)" id="3pmRGSrW_XIShlIhQhTt8"  >
<path style="stroke: none; stroke-width: 0; stroke-dasharray: none; stroke-linecap: butt; stroke-dashoffset: 0; stroke-linejoin: miter; stroke-miterlimit: 4; fill: rgb(53,94,59); fill-rule: nonzero; opacity: 1;" vector-effect="non-scaling-stroke"  transform=" translate(0, 0)" d="M 290.975 -97.608 C 257.76700000000005 -97.608 240.88000000000002 -116.94500000000001 225.96800000000002 -133.999 C 211.79500000000002 -150.216 199.56300000000002 -164.22 174.55 -164.22 C 149.537 -164.22 137.29600000000002 -150.216 123.12300000000002 -133.999 C 108.22000000000001 -116.945 91.31500000000003 -97.608 58.116000000000014 -97.608 C 24.92500000000001 -97.608 8.038000000000011 -116.94500000000001 -6.8659999999999854 -134.007 C -21.019999999999985 -150.215 -33.252999999999986 -164.219 -58.22999999999998 -164.219 C -83.23399999999998 -164.219 -95.46699999999998 -150.215 -109.62999999999998 -133.998 C -124.54299999999998 -116.94399999999999 -141.42899999999997 -97.607 -174.61999999999998 -97.607 C -207.81099999999998 -97.607 -224.69799999999998 -116.944 -239.59299999999996 -133.998 C -253.75599999999997 -150.21599999999998 -265.97999999999996 -164.22 -290.97499999999997 -164.22 C -295.95399999999995 -164.22 -299.99999999999994 -168.257 -299.99999999999994 -173.245 C -299.99999999999994 -178.234 -295.9549999999999 -182.27 -290.97499999999997 -182.27 C -257.784 -182.27 -240.89699999999996 -162.93300000000002 -226.00199999999995 -145.87900000000002 C -211.83899999999994 -129.66200000000003 -199.61499999999995 -115.65800000000002 -174.61999999999995 -115.65800000000002 C -149.62499999999994 -115.65800000000002 -137.39299999999994 -129.662 -123.21999999999994 -145.87900000000002 C -108.32499999999995 -162.93300000000002 -91.42999999999995 -182.27 -58.22999999999995 -182.27 C -25.047999999999945 -182.27 -8.160999999999945 -162.93300000000002 6.733000000000047 -145.87900000000002 C 20.896000000000047 -129.66200000000003 33.12900000000005 -115.65800000000002 58.11600000000005 -115.65800000000002 C 83.11900000000006 -115.65800000000002 95.36100000000005 -129.662 109.53300000000004 -145.87900000000002 C 124.43600000000005 -162.93300000000002 141.34100000000004 -182.27 174.55000000000004 -182.27 C 207.75900000000004 -182.27 224.64600000000004 -162.93300000000002 239.55800000000005 -145.87900000000002 C 253.73000000000005 -129.66200000000003 265.9630000000001 -115.65800000000002 290.975 -115.65800000000002 C 295.964 -115.65800000000002 300 -111.62100000000001 300 -106.63300000000001 C 300 -101.64500000000001 295.964 -97.608 290.975 -97.608 z M 300 33.306 C 300 28.317999999999998 295.964 24.281999999999996 290.975 24.281999999999996 C 265.963 24.281999999999996 253.73000000000002 10.276999999999996 239.55800000000002 -5.940000000000005 C 224.64600000000002 -22.994000000000003 207.75900000000001 -42.331 174.55 -42.331 C 141.341 -42.331 124.43700000000001 -22.994000000000003 109.53300000000002 -5.940000000000005 C 95.36100000000002 10.276999999999994 83.11900000000001 24.281999999999996 58.116000000000014 24.281999999999996 C 33.13000000000001 24.281999999999996 20.896000000000015 10.276999999999996 6.733000000000011 -5.940000000000005 C -8.161999999999988 -22.994000000000003 -25.047999999999988 -42.331 -58.22999999999998 -42.331 C -91.42999999999998 -42.331 -108.32599999999998 -22.994000000000003 -123.21999999999997 -5.940000000000005 C -137.39199999999997 10.276999999999994 -149.62499999999997 24.281999999999996 -174.61999999999998 24.281999999999996 C -199.61499999999998 24.281999999999996 -211.83899999999997 10.276999999999996 -226.00199999999998 -5.940000000000005 C -240.897 -22.994000000000003 -257.78299999999996 -42.331 -290.97499999999997 -42.331 C -295.95399999999995 -42.331 -299.99999999999994 -38.294000000000004 -299.99999999999994 -33.306000000000004 C -299.99999999999994 -28.318000000000005 -295.9549999999999 -24.281000000000006 -290.97499999999997 -24.281000000000006 C -265.97999999999996 -24.281000000000006 -253.75599999999997 -10.277000000000006 -239.59299999999996 5.939999999999994 C -224.69799999999995 22.993999999999993 -207.81199999999995 42.33099999999999 -174.61999999999995 42.33099999999999 C -141.42799999999994 42.33099999999999 -124.54199999999994 22.99399999999999 -109.62999999999995 5.939999999999991 C -95.46699999999996 -10.277000000000008 -83.23399999999995 -24.28100000000001 -58.229999999999954 -24.28100000000001 C -33.25299999999996 -24.28100000000001 -21.019999999999953 -10.27700000000001 -6.865999999999957 5.93099999999999 C 8.038000000000043 22.99399999999999 24.925000000000043 42.32999999999999 58.11600000000004 42.32999999999999 C 91.31500000000004 42.32999999999999 108.22000000000004 22.99299999999999 123.12300000000005 5.938999999999993 C 137.29600000000005 -10.278000000000006 149.53700000000003 -24.282000000000007 174.55000000000004 -24.282000000000007 C 199.56300000000005 -24.282000000000007 211.79500000000004 -10.278000000000008 225.96800000000005 5.938999999999993 C 240.88000000000005 22.99299999999999 257.76700000000005 42.32999999999999 290.975 42.32999999999999 C 295.964 42.33099999999999 300 38.29399999999999 300 33.30599999999999 z M 300 173.245 C 300 168.257 295.964 164.221 290.975 164.221 C 265.963 164.221 253.73000000000002 150.216 239.55800000000002 133.999 C 224.64600000000002 116.945 207.75900000000001 97.608 174.55 97.608 C 141.341 97.608 124.43700000000001 116.94500000000001 109.53300000000002 133.999 C 95.36100000000002 150.216 83.11900000000001 164.221 58.116000000000014 164.221 C 33.13000000000001 164.221 20.896000000000015 150.216 6.733000000000011 133.999 C -8.161999999999988 116.945 -25.047999999999988 97.608 -58.22999999999998 97.608 C -91.42999999999998 97.608 -108.32599999999998 116.94500000000001 -123.21999999999997 133.999 C -137.39199999999997 150.216 -149.62499999999997 164.221 -174.61999999999998 164.221 C -199.61499999999998 164.221 -211.83899999999997 150.216 -226.00199999999998 133.999 C -240.897 116.945 -257.78299999999996 97.608 -290.97499999999997 97.608 C -295.95399999999995 97.608 -299.99999999999994 101.64500000000001 -299.99999999999994 106.63300000000001 C -299.99999999999994 111.62100000000001 -295.9549999999999 115.65700000000001 -290.97499999999997 115.65700000000001 C -265.97999999999996 115.65700000000001 -253.75599999999997 129.662 -239.59299999999996 145.87900000000002 C -224.69799999999995 162.93300000000002 -207.81199999999995 182.27 -174.61999999999995 182.27 C -141.42799999999994 182.27 -124.54199999999994 162.93300000000002 -109.62999999999995 145.87900000000002 C -95.46699999999996 129.66200000000003 -83.23399999999995 115.65700000000001 -58.229999999999954 115.65700000000001 C -33.25299999999996 115.65700000000001 -21.019999999999953 129.662 -6.865999999999957 145.87 C 8.038000000000043 162.933 24.925000000000043 182.269 58.11600000000004 182.269 C 91.31500000000004 182.269 108.22000000000004 162.93200000000002 123.12300000000005 145.87800000000001 C 137.29600000000005 129.661 149.53700000000003 115.656 174.55000000000004 115.656 C 199.56300000000005 115.656 211.79500000000004 129.661 225.96800000000005 145.87800000000001 C 240.88000000000005 162.93200000000002 257.76700000000005 182.269 290.975 182.269 C 295.964 182.27100000000002 300 178.233 300 173.245 z" stroke-linecap="round" />
</g>
<g transform="matrix(4.05 0 0 0.96 637.29 284.18)" id="jwbhWNUiveQJow-WlDZFA"  >
<path style="stroke: none; stroke-width: 0; stroke-dasharray: none; stroke-linecap: butt; stroke-dashoffset: 0; stroke-linejoin: miter; stroke-miterlimit: 4; fill: rgb(53,94,59); fill-rule: nonzero; opacity: 1;" vector-effect="non-scaling-stroke"  transform=" translate(0, 0)" d="M 290.975 -97.608 C 257.76700000000005 -97.608 240.88000000000002 -116.94500000000001 225.96800000000002 -133.999 C 211.79500000000002 -150.216 199.56300000000002 -164.22 174.55 -164.22 C 149.537 -164.22 137.29600000000002 -150.216 123.12300000000002 -133.999 C 108.22000000000001 -116.945 91.31500000000003 -97.608 58.116000000000014 -97.608 C 24.92500000000001 -97.608 8.038000000000011 -116.94500000000001 -6.8659999999999854 -134.007 C -21.019999999999985 -150.215 -33.252999999999986 -164.219 -58.22999999999998 -164.219 C -83.23399999999998 -164.219 -95.46699999999998 -150.215 -109.62999999999998 -133.998 C -124.54299999999998 -116.94399999999999 -141.42899999999997 -97.607 -174.61999999999998 -97.607 C -207.81099999999998 -97.607 -224.69799999999998 -116.944 -239.59299999999996 -133.998 C -253.75599999999997 -150.21599999999998 -265.97999999999996 -164.22 -290.97499999999997 -164.22 C -295.95399999999995 -164.22 -299.99999999999994 -168.257 -299.99999999999994 -173.245 C -299.99999999999994 -178.234 -295.9549999999999 -182.27 -290.97499999999997 -182.27 C -257.784 -182.27 -240.89699999999996 -162.93300000000002 -226.00199999999995 -145.87900000000002 C -211.83899999999994 -129.66200000000003 -199.61499999999995 -115.65800000000002 -174.61999999999995 -115.65800000000002 C -149.62499999999994 -115.65800000000002 -137.39299999999994 -129.662 -123.21999999999994 -145.87900000000002 C -108.32499999999995 -162.93300000000002 -91.42999999999995 -182.27 -58.22999999999995 -182.27 C -25.047999999999945 -182.27 -8.160999999999945 -162.93300000000002 6.733000000000047 -145.87900000000002 C 20.896000000000047 -129.66200000000003 33.12900000000005 -115.65800000000002 58.11600000000005 -115.65800000000002 C 83.11900000000006 -115.65800000000002 95.36100000000005 -129.662 109.53300000000004 -145.87900000000002 C 124.43600000000005 -162.93300000000002 141.34100000000004 -182.27 174.55000000000004 -182.27 C 207.75900000000004 -182.27 224.64600000000004 -162.93300000000002 239.55800000000005 -145.87900000000002 C 253.73000000000005 -129.66200000000003 265.9630000000001 -115.65800000000002 290.975 -115.65800000000002 C 295.964 -115.65800000000002 300 -111.62100000000001 300 -106.63300000000001 C 300 -101.64500000000001 295.964 -97.608 290.975 -97.608 z M 300 33.306 C 300 28.317999999999998 295.964 24.281999999999996 290.975 24.281999999999996 C 265.963 24.281999999999996 253.73000000000002 10.276999999999996 239.55800000000002 -5.940000000000005 C 224.64600000000002 -22.994000000000003 207.75900000000001 -42.331 174.55 -42.331 C 141.341 -42.331 124.43700000000001 -22.994000000000003 109.53300000000002 -5.940000000000005 C 95.36100000000002 10.276999999999994 83.11900000000001 24.281999999999996 58.116000000000014 24.281999999999996 C 33.13000000000001 24.281999999999996 20.896000000000015 10.276999999999996 6.733000000000011 -5.940000000000005 C -8.161999999999988 -22.994000000000003 -25.047999999999988 -42.331 -58.22999999999998 -42.331 C -91.42999999999998 -42.331 -108.32599999999998 -22.994000000000003 -123.21999999999997 -5.940000000000005 C -137.39199999999997 10.276999999999994 -149.62499999999997 24.281999999999996 -174.61999999999998 24.281999999999996 C -199.61499999999998 24.281999999999996 -211.83899999999997 10.276999999999996 -226.00199999999998 -5.940000000000005 C -240.897 -22.994000000000003 -257.78299999999996 -42.331 -290.97499999999997 -42.331 C -295.95399999999995 -42.331 -299.99999999999994 -38.294000000000004 -299.99999999999994 -33.306000000000004 C -299.99999999999994 -28.318000000000005 -295.9549999999999 -24.281000000000006 -290.97499999999997 -24.281000000000006 C -265.97999999999996 -24.281000000000006 -253.75599999999997 -10.277000000000006 -239.59299999999996 5.939999999999994 C -224.69799999999995 22.993999999999993 -207.81199999999995 42.33099999999999 -174.61999999999995 42.33099999999999 C -141.42799999999994 42.33099999999999 -124.54199999999994 22.99399999999999 -109.62999999999995 5.939999999999991 C -95.46699999999996 -10.277000000000008 -83.23399999999995 -24.28100000000001 -58.229999999999954 -24.28100000000001 C -33.25299999999996 -24.28100000000001 -21.019999999999953 -10.27700000000001 -6.865999999999957 5.93099999999999 C 8.038000000000043 22.99399999999999 24.925000000000043 42.32999999999999 58.11600000000004 42.32999999999999 C 91.31500000000004 42.32999999999999 108.22000000000004 22.99299999999999 123.12300000000005 5.938999999999993 C 137.29600000000005 -10.278000000000006 149.53700000000003 -24.282000000000007 174.55000000000004 -24.282000000000007 C 199.56300000000005 -24.282000000000007 211.79500000000004 -10.278000000000008 225.96800000000005 5.938999999999993 C 240.88000000000005 22.99299999999999 257.76700000000005 42.32999999999999 290.975 42.32999999999999 C 295.964 42.33099999999999 300 38.29399999999999 300 33.30599999999999 z M 300 173.245 C 300 168.257 295.964 164.221 290.975 164.221 C 265.963 164.221 253.73000000000002 150.216 239.55800000000002 133.999 C 224.64600000000002 116.945 207.75900000000001 97.608 174.55 97.608 C 141.341 97.608 124.43700000000001 116.94500000000001 109.53300000000002 133.999 C 95.36100000000002 150.216 83.11900000000001 164.221 58.116000000000014 164.221 C 33.13000000000001 164.221 20.896000000000015 150.216 6.733000000000011 133.999 C -8.161999999999988 116.945 -25.047999999999988 97.608 -58.22999999999998 97.608 C -91.42999999999998 97.608 -108.32599999999998 116.94500000000001 -123.21999999999997 133.999 C -137.39199999999997 150.216 -149.62499999999997 164.221 -174.61999999999998 164.221 C -199.61499999999998 164.221 -211.83899999999997 150.216 -226.00199999999998 133.999 C -240.897 116.945 -257.78299999999996 97.608 -290.97499999999997 97.608 C -295.95399999999995 97.608 -299.99999999999994 101.64500000000001 -299.99999999999994 106.63300000000001 C -299.99999999999994 111.62100000000001 -295.9549999999999 115.65700000000001 -290.97499999999997 115.65700000000001 C -265.97999999999996 115.65700000000001 -253.75599999999997 129.662 -239.59299999999996 145.87900000000002 C -224.69799999999995 162.93300000000002 -207.81199999999995 182.27 -174.61999999999995 182.27 C -141.42799999999994 182.27 -124.54199999999994 162.93300000000002 -109.62999999999995 145.87900000000002 C -95.46699999999996 129.66200000000003 -83.23399999999995 115.65700000000001 -58.229999999999954 115.65700000000001 C -33.25299999999996 115.65700000000001 -21.019999999999953 129.662 -6.865999999999957 145.87 C 8.038000000000043 162.933 24.925000000000043 182.269 58.11600000000004 182.269 C 91.31500000000004 182.269 108.22000000000004 162.93200000000002 123.12300000000005 145.87800000000001 C 137.29600000000005 129.661 149.53700000000003 115.656 174.55000000000004 115.656 C 199.56300000000005 115.656 211.79500000000004 129.661 225.96800000000005 145.87800000000001 C 240.88000000000005 162.93200000000002 257.76700000000005 182.269 290.975 182.269 C 295.964 182.27100000000002 300 178.233 300 173.245 z" stroke-linecap="round" />
</g>
<g transform="matrix(4.05 0 0 0.96 637.29 301.2)" id="shoFsmDwV2Mp12jGiYspN"  >
<path style="stroke: none; stroke-width: 0; stroke-dasharray: none; stroke-linecap: butt; stroke-dashoffset: 0; stroke-linejoin: miter; stroke-miterlimit: 4; fill: rgb(53,94,59); fill-rule: nonzero; opacity: 1;" vector-effect="non-scaling-stroke"  transform=" translate(0, 0)" d="M 290.975 -97.608 C 257.76700000000005 -97.608 240.88000000000002 -116.94500000000001 225.96800000000002 -133.999 C 211.79500000000002 -150.216 199.56300000000002 -164.22 174.55 -164.22 C 149.537 -164.22 137.29600000000002 -150.216 123.12300000000002 -133.999 C 108.22000000000001 -116.945 91.31500000000003 -97.608 58.116000000000014 -97.608 C 24.92500000000001 -97.608 8.038000000000011 -116.94500000000001 -6.8659999999999854 -134.007 C -21.019999999999985 -150.215 -33.252999999999986 -164.219 -58.22999999999998 -164.219 C -83.23399999999998 -164.219 -95.46699999999998 -150.215 -109.62999999999998 -133.998 C -124.54299999999998 -116.94399999999999 -141.42899999999997 -97.607 -174.61999999999998 -97.607 C -207.81099999999998 -97.607 -224.69799999999998 -116.944 -239.59299999999996 -133.998 C -253.75599999999997 -150.21599999999998 -265.97999999999996 -164.22 -290.97499999999997 -164.22 C -295.95399999999995 -164.22 -299.99999999999994 -168.257 -299.99999999999994 -173.245 C -299.99999999999994 -178.234 -295.9549999999999 -182.27 -290.97499999999997 -182.27 C -257.784 -182.27 -240.89699999999996 -162.93300000000002 -226.00199999999995 -145.87900000000002 C -211.83899999999994 -129.66200000000003 -199.61499999999995 -115.65800000000002 -174.61999999999995 -115.65800000000002 C -149.62499999999994 -115.65800000000002 -137.39299999999994 -129.662 -123.21999999999994 -145.87900000000002 C -108.32499999999995 -162.93300000000002 -91.42999999999995 -182.27 -58.22999999999995 -182.27 C -25.047999999999945 -182.27 -8.160999999999945 -162.93300000000002 6.733000000000047 -145.87900000000002 C 20.896000000000047 -129.66200000000003 33.12900000000005 -115.65800000000002 58.11600000000005 -115.65800000000002 C 83.11900000000006 -115.65800000000002 95.36100000000005 -129.662 109.53300000000004 -145.87900000000002 C 124.43600000000005 -162.93300000000002 141.34100000000004 -182.27 174.55000000000004 -182.27 C 207.75900000000004 -182.27 224.64600000000004 -162.93300000000002 239.55800000000005 -145.87900000000002 C 253.73000000000005 -129.66200000000003 265.9630000000001 -115.65800000000002 290.975 -115.65800000000002 C 295.964 -115.65800000000002 300 -111.62100000000001 300 -106.63300000000001 C 300 -101.64500000000001 295.964 -97.608 290.975 -97.608 z M 300 33.306 C 300 28.317999999999998 295.964 24.281999999999996 290.975 24.281999999999996 C 265.963 24.281999999999996 253.73000000000002 10.276999999999996 239.55800000000002 -5.940000000000005 C 224.64600000000002 -22.994000000000003 207.75900000000001 -42.331 174.55 -42.331 C 141.341 -42.331 124.43700000000001 -22.994000000000003 109.53300000000002 -5.940000000000005 C 95.36100000000002 10.276999999999994 83.11900000000001 24.281999999999996 58.116000000000014 24.281999999999996 C 33.13000000000001 24.281999999999996 20.896000000000015 10.276999999999996 6.733000000000011 -5.940000000000005 C -8.161999999999988 -22.994000000000003 -25.047999999999988 -42.331 -58.22999999999998 -42.331 C -91.42999999999998 -42.331 -108.32599999999998 -22.994000000000003 -123.21999999999997 -5.940000000000005 C -137.39199999999997 10.276999999999994 -149.62499999999997 24.281999999999996 -174.61999999999998 24.281999999999996 C -199.61499999999998 24.281999999999996 -211.83899999999997 10.276999999999996 -226.00199999999998 -5.940000000000005 C -240.897 -22.994000000000003 -257.78299999999996 -42.331 -290.97499999999997 -42.331 C -295.95399999999995 -42.331 -299.99999999999994 -38.294000000000004 -299.99999999999994 -33.306000000000004 C -299.99999999999994 -28.318000000000005 -295.9549999999999 -24.281000000000006 -290.97499999999997 -24.281000000000006 C -265.97999999999996 -24.281000000000006 -253.75599999999997 -10.277000000000006 -239.59299999999996 5.939999999999994 C -224.69799999999995 22.993999999999993 -207.81199999999995 42.33099999999999 -174.61999999999995 42.33099999999999 C -141.42799999999994 42.33099999999999 -124.54199999999994 22.99399999999999 -109.62999999999995 5.939999999999991 C -95.46699999999996 -10.277000000000008 -83.23399999999995 -24.28100000000001 -58.229999999999954 -24.28100000000001 C -33.25299999999996 -24.28100000000001 -21.019999999999953 -10.27700000000001 -6.865999999999957 5.93099999999999 C 8.038000000000043 22.99399999999999 24.925000000000043 42.32999999999999 58.11600000000004 42.32999999999999 C 91.31500000000004 42.32999999999999 108.22000000000004 22.99299999999999 123.12300000000005 5.938999999999993 C 137.29600000000005 -10.278000000000006 149.53700000000003 -24.282000000000007 174.55000000000004 -24.282000000000007 C 199.56300000000005 -24.282000000000007 211.79500000000004 -10.278000000000008 225.96800000000005 5.938999999999993 C 240.88000000000005 22.99299999999999 257.76700000000005 42.32999999999999 290.975 42.32999999999999 C 295.964 42.33099999999999 300 38.29399999999999 300 33.30599999999999 z M 300 173.245 C 300 168.257 295.964 164.221 290.975 164.221 C 265.963 164.221 253.73000000000002 150.216 239.55800000000002 133.999 C 224.64600000000002 116.945 207.75900000000001 97.608 174.55 97.608 C 141.341 97.608 124.43700000000001 116.94500000000001 109.53300000000002 133.999 C 95.36100000000002 150.216 83.11900000000001 164.221 58.116000000000014 164.221 C 33.13000000000001 164.221 20.896000000000015 150.216 6.733000000000011 133.999 C -8.161999999999988 116.945 -25.047999999999988 97.608 -58.22999999999998 97.608 C -91.42999999999998 97.608 -108.32599999999998 116.94500000000001 -123.21999999999997 133.999 C -137.39199999999997 150.216 -149.62499999999997 164.221 -174.61999999999998 164.221 C -199.61499999999998 164.221 -211.83899999999997 150.216 -226.00199999999998 133.999 C -240.897 116.945 -257.78299999999996 97.608 -290.97499999999997 97.608 C -295.95399999999995 97.608 -299.99999999999994 101.64500000000001 -299.99999999999994 106.63300000000001 C -299.99999999999994 111.62100000000001 -295.9549999999999 115.65700000000001 -290.97499999999997 115.65700000000001 C -265.97999999999996 115.65700000000001 -253.75599999999997 129.662 -239.59299999999996 145.87900000000002 C -224.69799999999995 162.93300000000002 -207.81199999999995 182.27 -174.61999999999995 182.27 C -141.42799999999994 182.27 -124.54199999999994 162.93300000000002 -109.62999999999995 145.87900000000002 C -95.46699999999996 129.66200000000003 -83.23399999999995 115.65700000000001 -58.229999999999954 115.65700000000001 C -33.25299999999996 115.65700000000001 -21.019999999999953 129.662 -6.865999999999957 145.87 C 8.038000000000043 162.933 24.925000000000043 182.269 58.11600000000004 182.269 C 91.31500000000004 182.269 108.22000000000004 162.93200000000002 123.12300000000005 145.87800000000001 C 137.29600000000005 129.661 149.53700000000003 115.656 174.55000000000004 115.656 C 199.56300000000005 115.656 211.79500000000004 129.661 225.96800000000005 145.87800000000001 C 240.88000000000005 162.93200000000002 257.76700000000005 182.269 290.975 182.269 C 295.964 182.27100000000002 300 178.233 300 173.245 z" stroke-linecap="round" />
</g>
<g transform="matrix(4.05 0 0 0.96 638.43 317.97)" id="Y5P_PZC9Yu9ys3ijyEgn0"  >
<path style="stroke: none; stroke-width: 0; stroke-dasharray: none; stroke-linecap: butt; stroke-dashoffset: 0; stroke-linejoin: miter; stroke-miterlimit: 4; fill: rgb(53,94,59); fill-rule: nonzero; opacity: 1;" vector-effect="non-scaling-stroke"  transform=" translate(0, 0)" d="M 290.975 -97.608 C 257.76700000000005 -97.608 240.88000000000002 -116.94500000000001 225.96800000000002 -133.999 C 211.79500000000002 -150.216 199.56300000000002 -164.22 174.55 -164.22 C 149.537 -164.22 137.29600000000002 -150.216 123.12300000000002 -133.999 C 108.22000000000001 -116.945 91.31500000000003 -97.608 58.116000000000014 -97.608 C 24.92500000000001 -97.608 8.038000000000011 -116.94500000000001 -6.8659999999999854 -134.007 C -21.019999999999985 -150.215 -33.252999999999986 -164.219 -58.22999999999998 -164.219 C -83.23399999999998 -164.219 -95.46699999999998 -150.215 -109.62999999999998 -133.998 C -124.54299999999998 -116.94399999999999 -141.42899999999997 -97.607 -174.61999999999998 -97.607 C -207.81099999999998 -97.607 -224.69799999999998 -116.944 -239.59299999999996 -133.998 C -253.75599999999997 -150.21599999999998 -265.97999999999996 -164.22 -290.97499999999997 -164.22 C -295.95399999999995 -164.22 -299.99999999999994 -168.257 -299.99999999999994 -173.245 C -299.99999999999994 -178.234 -295.9549999999999 -182.27 -290.97499999999997 -182.27 C -257.784 -182.27 -240.89699999999996 -162.93300000000002 -226.00199999999995 -145.87900000000002 C -211.83899999999994 -129.66200000000003 -199.61499999999995 -115.65800000000002 -174.61999999999995 -115.65800000000002 C -149.62499999999994 -115.65800000000002 -137.39299999999994 -129.662 -123.21999999999994 -145.87900000000002 C -108.32499999999995 -162.93300000000002 -91.42999999999995 -182.27 -58.22999999999995 -182.27 C -25.047999999999945 -182.27 -8.160999999999945 -162.93300000000002 6.733000000000047 -145.87900000000002 C 20.896000000000047 -129.66200000000003 33.12900000000005 -115.65800000000002 58.11600000000005 -115.65800000000002 C 83.11900000000006 -115.65800000000002 95.36100000000005 -129.662 109.53300000000004 -145.87900000000002 C 124.43600000000005 -162.93300000000002 141.34100000000004 -182.27 174.55000000000004 -182.27 C 207.75900000000004 -182.27 224.64600000000004 -162.93300000000002 239.55800000000005 -145.87900000000002 C 253.73000000000005 -129.66200000000003 265.9630000000001 -115.65800000000002 290.975 -115.65800000000002 C 295.964 -115.65800000000002 300 -111.62100000000001 300 -106.63300000000001 C 300 -101.64500000000001 295.964 -97.608 290.975 -97.608 z M 300 33.306 C 300 28.317999999999998 295.964 24.281999999999996 290.975 24.281999999999996 C 265.963 24.281999999999996 253.73000000000002 10.276999999999996 239.55800000000002 -5.940000000000005 C 224.64600000000002 -22.994000000000003 207.75900000000001 -42.331 174.55 -42.331 C 141.341 -42.331 124.43700000000001 -22.994000000000003 109.53300000000002 -5.940000000000005 C 95.36100000000002 10.276999999999994 83.11900000000001 24.281999999999996 58.116000000000014 24.281999999999996 C 33.13000000000001 24.281999999999996 20.896000000000015 10.276999999999996 6.733000000000011 -5.940000000000005 C -8.161999999999988 -22.994000000000003 -25.047999999999988 -42.331 -58.22999999999998 -42.331 C -91.42999999999998 -42.331 -108.32599999999998 -22.994000000000003 -123.21999999999997 -5.940000000000005 C -137.39199999999997 10.276999999999994 -149.62499999999997 24.281999999999996 -174.61999999999998 24.281999999999996 C -199.61499999999998 24.281999999999996 -211.83899999999997 10.276999999999996 -226.00199999999998 -5.940000000000005 C -240.897 -22.994000000000003 -257.78299999999996 -42.331 -290.97499999999997 -42.331 C -295.95399999999995 -42.331 -299.99999999999994 -38.294000000000004 -299.99999999999994 -33.306000000000004 C -299.99999999999994 -28.318000000000005 -295.9549999999999 -24.281000000000006 -290.97499999999997 -24.281000000000006 C -265.97999999999996 -24.281000000000006 -253.75599999999997 -10.277000000000006 -239.59299999999996 5.939999999999994 C -224.69799999999995 22.993999999999993 -207.81199999999995 42.33099999999999 -174.61999999999995 42.33099999999999 C -141.42799999999994 42.33099999999999 -124.54199999999994 22.99399999999999 -109.62999999999995 5.939999999999991 C -95.46699999999996 -10.277000000000008 -83.23399999999995 -24.28100000000001 -58.229999999999954 -24.28100000000001 C -33.25299999999996 -24.28100000000001 -21.019999999999953 -10.27700000000001 -6.865999999999957 5.93099999999999 C 8.038000000000043 22.99399999999999 24.925000000000043 42.32999999999999 58.11600000000004 42.32999999999999 C 91.31500000000004 42.32999999999999 108.22000000000004 22.99299999999999 123.12300000000005 5.938999999999993 C 137.29600000000005 -10.278000000000006 149.53700000000003 -24.282000000000007 174.55000000000004 -24.282000000000007 C 199.56300000000005 -24.282000000000007 211.79500000000004 -10.278000000000008 225.96800000000005 5.938999999999993 C 240.88000000000005 22.99299999999999 257.76700000000005 42.32999999999999 290.975 42.32999999999999 C 295.964 42.33099999999999 300 38.29399999999999 300 33.30599999999999 z M 300 173.245 C 300 168.257 295.964 164.221 290.975 164.221 C 265.963 164.221 253.73000000000002 150.216 239.55800000000002 133.999 C 224.64600000000002 116.945 207.75900000000001 97.608 174.55 97.608 C 141.341 97.608 124.43700000000001 116.94500000000001 109.53300000000002 133.999 C 95.36100000000002 150.216 83.11900000000001 164.221 58.116000000000014 164.221 C 33.13000000000001 164.221 20.896000000000015 150.216 6.733000000000011 133.999 C -8.161999999999988 116.945 -25.047999999999988 97.608 -58.22999999999998 97.608 C -91.42999999999998 97.608 -108.32599999999998 116.94500000000001 -123.21999999999997 133.999 C -137.39199999999997 150.216 -149.62499999999997 164.221 -174.61999999999998 164.221 C -199.61499999999998 164.221 -211.83899999999997 150.216 -226.00199999999998 133.999 C -240.897 116.945 -257.78299999999996 97.608 -290.97499999999997 97.608 C -295.95399999999995 97.608 -299.99999999999994 101.64500000000001 -299.99999999999994 106.63300000000001 C -299.99999999999994 111.62100000000001 -295.9549999999999 115.65700000000001 -290.97499999999997 115.65700000000001 C -265.97999999999996 115.65700000000001 -253.75599999999997 129.662 -239.59299999999996 145.87900000000002 C -224.69799999999995 162.93300000000002 -207.81199999999995 182.27 -174.61999999999995 182.27 C -141.42799999999994 182.27 -124.54199999999994 162.93300000000002 -109.62999999999995 145.87900000000002 C -95.46699999999996 129.66200000000003 -83.23399999999995 115.65700000000001 -58.229999999999954 115.65700000000001 C -33.25299999999996 115.65700000000001 -21.019999999999953 129.662 -6.865999999999957 145.87 C 8.038000000000043 162.933 24.925000000000043 182.269 58.11600000000004 182.269 C 91.31500000000004 182.269 108.22000000000004 162.93200000000002 123.12300000000005 145.87800000000001 C 137.29600000000005 129.661 149.53700000000003 115.656 174.55000000000004 115.656 C 199.56300000000005 115.656 211.79500000000004 129.661 225.96800000000005 145.87800000000001 C 240.88000000000005 162.93200000000002 257.76700000000005 182.269 290.975 182.269 C 295.964 182.27100000000002 300 178.233 300 173.245 z" stroke-linecap="round" />
</g>
<g transform="matrix(4.05 0 0 0.96 638.73 330.48)" id="0bOGoRIEl2ZDFY_Okc7lg"  >
<path style="stroke: none; stroke-width: 0; stroke-dasharray: none; stroke-linecap: butt; stroke-dashoffset: 0; stroke-linejoin: miter; stroke-miterlimit: 4; fill: rgb(53,94,59); fill-rule: nonzero; opacity: 1;" vector-effect="non-scaling-stroke"  transform=" translate(0, 0)" d="M 290.975 -97.608 C 257.76700000000005 -97.608 240.88000000000002 -116.94500000000001 225.96800000000002 -133.999 C 211.79500000000002 -150.216 199.56300000000002 -164.22 174.55 -164.22 C 149.537 -164.22 137.29600000000002 -150.216 123.12300000000002 -133.999 C 108.22000000000001 -116.945 91.31500000000003 -97.608 58.116000000000014 -97.608 C 24.92500000000001 -97.608 8.038000000000011 -116.94500000000001 -6.8659999999999854 -134.007 C -21.019999999999985 -150.215 -33.252999999999986 -164.219 -58.22999999999998 -164.219 C -83.23399999999998 -164.219 -95.46699999999998 -150.215 -109.62999999999998 -133.998 C -124.54299999999998 -116.94399999999999 -141.42899999999997 -97.607 -174.61999999999998 -97.607 C -207.81099999999998 -97.607 -224.69799999999998 -116.944 -239.59299999999996 -133.998 C -253.75599999999997 -150.21599999999998 -265.97999999999996 -164.22 -290.97499999999997 -164.22 C -295.95399999999995 -164.22 -299.99999999999994 -168.257 -299.99999999999994 -173.245 C -299.99999999999994 -178.234 -295.9549999999999 -182.27 -290.97499999999997 -182.27 C -257.784 -182.27 -240.89699999999996 -162.93300000000002 -226.00199999999995 -145.87900000000002 C -211.83899999999994 -129.66200000000003 -199.61499999999995 -115.65800000000002 -174.61999999999995 -115.65800000000002 C -149.62499999999994 -115.65800000000002 -137.39299999999994 -129.662 -123.21999999999994 -145.87900000000002 C -108.32499999999995 -162.93300000000002 -91.42999999999995 -182.27 -58.22999999999995 -182.27 C -25.047999999999945 -182.27 -8.160999999999945 -162.93300000000002 6.733000000000047 -145.87900000000002 C 20.896000000000047 -129.66200000000003 33.12900000000005 -115.65800000000002 58.11600000000005 -115.65800000000002 C 83.11900000000006 -115.65800000000002 95.36100000000005 -129.662 109.53300000000004 -145.87900000000002 C 124.43600000000005 -162.93300000000002 141.34100000000004 -182.27 174.55000000000004 -182.27 C 207.75900000000004 -182.27 224.64600000000004 -162.93300000000002 239.55800000000005 -145.87900000000002 C 253.73000000000005 -129.66200000000003 265.9630000000001 -115.65800000000002 290.975 -115.65800000000002 C 295.964 -115.65800000000002 300 -111.62100000000001 300 -106.63300000000001 C 300 -101.64500000000001 295.964 -97.608 290.975 -97.608 z M 300 33.306 C 300 28.317999999999998 295.964 24.281999999999996 290.975 24.281999999999996 C 265.963 24.281999999999996 253.73000000000002 10.276999999999996 239.55800000000002 -5.940000000000005 C 224.64600000000002 -22.994000000000003 207.75900000000001 -42.331 174.55 -42.331 C 141.341 -42.331 124.43700000000001 -22.994000000000003 109.53300000000002 -5.940000000000005 C 95.36100000000002 10.276999999999994 83.11900000000001 24.281999999999996 58.116000000000014 24.281999999999996 C 33.13000000000001 24.281999999999996 20.896000000000015 10.276999999999996 6.733000000000011 -5.940000000000005 C -8.161999999999988 -22.994000000000003 -25.047999999999988 -42.331 -58.22999999999998 -42.331 C -91.42999999999998 -42.331 -108.32599999999998 -22.994000000000003 -123.21999999999997 -5.940000000000005 C -137.39199999999997 10.276999999999994 -149.62499999999997 24.281999999999996 -174.61999999999998 24.281999999999996 C -199.61499999999998 24.281999999999996 -211.83899999999997 10.276999999999996 -226.00199999999998 -5.940000000000005 C -240.897 -22.994000000000003 -257.78299999999996 -42.331 -290.97499999999997 -42.331 C -295.95399999999995 -42.331 -299.99999999999994 -38.294000000000004 -299.99999999999994 -33.306000000000004 C -299.99999999999994 -28.318000000000005 -295.9549999999999 -24.281000000000006 -290.97499999999997 -24.281000000000006 C -265.97999999999996 -24.281000000000006 -253.75599999999997 -10.277000000000006 -239.59299999999996 5.939999999999994 C -224.69799999999995 22.993999999999993 -207.81199999999995 42.33099999999999 -174.61999999999995 42.33099999999999 C -141.42799999999994 42.33099999999999 -124.54199999999994 22.99399999999999 -109.62999999999995 5.939999999999991 C -95.46699999999996 -10.277000000000008 -83.23399999999995 -24.28100000000001 -58.229999999999954 -24.28100000000001 C -33.25299999999996 -24.28100000000001 -21.019999999999953 -10.27700000000001 -6.865999999999957 5.93099999999999 C 8.038000000000043 22.99399999999999 24.925000000000043 42.32999999999999 58.11600000000004 42.32999999999999 C 91.31500000000004 42.32999999999999 108.22000000000004 22.99299999999999 123.12300000000005 5.938999999999993 C 137.29600000000005 -10.278000000000006 149.53700000000003 -24.282000000000007 174.55000000000004 -24.282000000000007 C 199.56300000000005 -24.282000000000007 211.79500000000004 -10.278000000000008 225.96800000000005 5.938999999999993 C 240.88000000000005 22.99299999999999 257.76700000000005 42.32999999999999 290.975 42.32999999999999 C 295.964 42.33099999999999 300 38.29399999999999 300 33.30599999999999 z M 300 173.245 C 300 168.257 295.964 164.221 290.975 164.221 C 265.963 164.221 253.73000000000002 150.216 239.55800000000002 133.999 C 224.64600000000002 116.945 207.75900000000001 97.608 174.55 97.608 C 141.341 97.608 124.43700000000001 116.94500000000001 109.53300000000002 133.999 C 95.36100000000002 150.216 83.11900000000001 164.221 58.116000000000014 164.221 C 33.13000000000001 164.221 20.896000000000015 150.216 6.733000000000011 133.999 C -8.161999999999988 116.945 -25.047999999999988 97.608 -58.22999999999998 97.608 C -91.42999999999998 97.608 -108.32599999999998 116.94500000000001 -123.21999999999997 133.999 C -137.39199999999997 150.216 -149.62499999999997 164.221 -174.61999999999998 164.221 C -199.61499999999998 164.221 -211.83899999999997 150.216 -226.00199999999998 133.999 C -240.897 116.945 -257.78299999999996 97.608 -290.97499999999997 97.608 C -295.95399999999995 97.608 -299.99999999999994 101.64500000000001 -299.99999999999994 106.63300000000001 C -299.99999999999994 111.62100000000001 -295.9549999999999 115.65700000000001 -290.97499999999997 115.65700000000001 C -265.97999999999996 115.65700000000001 -253.75599999999997 129.662 -239.59299999999996 145.87900000000002 C -224.69799999999995 162.93300000000002 -207.81199999999995 182.27 -174.61999999999995 182.27 C -141.42799999999994 182.27 -124.54199999999994 162.93300000000002 -109.62999999999995 145.87900000000002 C -95.46699999999996 129.66200000000003 -83.23399999999995 115.65700000000001 -58.229999999999954 115.65700000000001 C -33.25299999999996 115.65700000000001 -21.019999999999953 129.662 -6.865999999999957 145.87 C 8.038000000000043 162.933 24.925000000000043 182.269 58.11600000000004 182.269 C 91.31500000000004 182.269 108.22000000000004 162.93200000000002 123.12300000000005 145.87800000000001 C 137.29600000000005 129.661 149.53700000000003 115.656 174.55000000000004 115.656 C 199.56300000000005 115.656 211.79500000000004 129.661 225.96800000000005 145.87800000000001 C 240.88000000000005 162.93200000000002 257.76700000000005 182.269 290.975 182.269 C 295.964 182.27100000000002 300 178.233 300 173.245 z" stroke-linecap="round" />
</g>
<g transform="matrix(4.05 0 0 0.96 636.99 341.93)" id="wjJQn5MqKuQoIMKuHpZ5f"  >
<path style="stroke: none; stroke-width: 0; stroke-dasharray: none; stroke-linecap: butt; stroke-dashoffset: 0; stroke-linejoin: miter; stroke-miterlimit: 4; fill: rgb(53,94,59); fill-rule: nonzero; opacity: 1;" vector-effect="non-scaling-stroke"  transform=" translate(0, 0)" d="M 290.975 -97.608 C 257.76700000000005 -97.608 240.88000000000002 -116.94500000000001 225.96800000000002 -133.999 C 211.79500000000002 -150.216 199.56300000000002 -164.22 174.55 -164.22 C 149.537 -164.22 137.29600000000002 -150.216 123.12300000000002 -133.999 C 108.22000000000001 -116.945 91.31500000000003 -97.608 58.116000000000014 -97.608 C 24.92500000000001 -97.608 8.038000000000011 -116.94500000000001 -6.8659999999999854 -134.007 C -21.019999999999985 -150.215 -33.252999999999986 -164.219 -58.22999999999998 -164.219 C -83.23399999999998 -164.219 -95.46699999999998 -150.215 -109.62999999999998 -133.998 C -124.54299999999998 -116.94399999999999 -141.42899999999997 -97.607 -174.61999999999998 -97.607 C -207.81099999999998 -97.607 -224.69799999999998 -116.944 -239.59299999999996 -133.998 C -253.75599999999997 -150.21599999999998 -265.97999999999996 -164.22 -290.97499999999997 -164.22 C -295.95399999999995 -164.22 -299.99999999999994 -168.257 -299.99999999999994 -173.245 C -299.99999999999994 -178.234 -295.9549999999999 -182.27 -290.97499999999997 -182.27 C -257.784 -182.27 -240.89699999999996 -162.93300000000002 -226.00199999999995 -145.87900000000002 C -211.83899999999994 -129.66200000000003 -199.61499999999995 -115.65800000000002 -174.61999999999995 -115.65800000000002 C -149.62499999999994 -115.65800000000002 -137.39299999999994 -129.662 -123.21999999999994 -145.87900000000002 C -108.32499999999995 -162.93300000000002 -91.42999999999995 -182.27 -58.22999999999995 -182.27 C -25.047999999999945 -182.27 -8.160999999999945 -162.93300000000002 6.733000000000047 -145.87900000000002 C 20.896000000000047 -129.66200000000003 33.12900000000005 -115.65800000000002 58.11600000000005 -115.65800000000002 C 83.11900000000006 -115.65800000000002 95.36100000000005 -129.662 109.53300000000004 -145.87900000000002 C 124.43600000000005 -162.93300000000002 141.34100000000004 -182.27 174.55000000000004 -182.27 C 207.75900000000004 -182.27 224.64600000000004 -162.93300000000002 239.55800000000005 -145.87900000000002 C 253.73000000000005 -129.66200000000003 265.9630000000001 -115.65800000000002 290.975 -115.65800000000002 C 295.964 -115.65800000000002 300 -111.62100000000001 300 -106.63300000000001 C 300 -101.64500000000001 295.964 -97.608 290.975 -97.608 z M 300 33.306 C 300 28.317999999999998 295.964 24.281999999999996 290.975 24.281999999999996 C 265.963 24.281999999999996 253.73000000000002 10.276999999999996 239.55800000000002 -5.940000000000005 C 224.64600000000002 -22.994000000000003 207.75900000000001 -42.331 174.55 -42.331 C 141.341 -42.331 124.43700000000001 -22.994000000000003 109.53300000000002 -5.940000000000005 C 95.36100000000002 10.276999999999994 83.11900000000001 24.281999999999996 58.116000000000014 24.281999999999996 C 33.13000000000001 24.281999999999996 20.896000000000015 10.276999999999996 6.733000000000011 -5.940000000000005 C -8.161999999999988 -22.994000000000003 -25.047999999999988 -42.331 -58.22999999999998 -42.331 C -91.42999999999998 -42.331 -108.32599999999998 -22.994000000000003 -123.21999999999997 -5.940000000000005 C -137.39199999999997 10.276999999999994 -149.62499999999997 24.281999999999996 -174.61999999999998 24.281999999999996 C -199.61499999999998 24.281999999999996 -211.83899999999997 10.276999999999996 -226.00199999999998 -5.940000000000005 C -240.897 -22.994000000000003 -257.78299999999996 -42.331 -290.97499999999997 -42.331 C -295.95399999999995 -42.331 -299.99999999999994 -38.294000000000004 -299.99999999999994 -33.306000000000004 C -299.99999999999994 -28.318000000000005 -295.9549999999999 -24.281000000000006 -290.97499999999997 -24.281000000000006 C -265.97999999999996 -24.281000000000006 -253.75599999999997 -10.277000000000006 -239.59299999999996 5.939999999999994 C -224.69799999999995 22.993999999999993 -207.81199999999995 42.33099999999999 -174.61999999999995 42.33099999999999 C -141.42799999999994 42.33099999999999 -124.54199999999994 22.99399999999999 -109.62999999999995 5.939999999999991 C -95.46699999999996 -10.277000000000008 -83.23399999999995 -24.28100000000001 -58.229999999999954 -24.28100000000001 C -33.25299999999996 -24.28100000000001 -21.019999999999953 -10.27700000000001 -6.865999999999957 5.93099999999999 C 8.038000000000043 22.99399999999999 24.925000000000043 42.32999999999999 58.11600000000004 42.32999999999999 C 91.31500000000004 42.32999999999999 108.22000000000004 22.99299999999999 123.12300000000005 5.938999999999993 C 137.29600000000005 -10.278000000000006 149.53700000000003 -24.282000000000007 174.55000000000004 -24.282000000000007 C 199.56300000000005 -24.282000000000007 211.79500000000004 -10.278000000000008 225.96800000000005 5.938999999999993 C 240.88000000000005 22.99299999999999 257.76700000000005 42.32999999999999 290.975 42.32999999999999 C 295.964 42.33099999999999 300 38.29399999999999 300 33.30599999999999 z M 300 173.245 C 300 168.257 295.964 164.221 290.975 164.221 C 265.963 164.221 253.73000000000002 150.216 239.55800000000002 133.999 C 224.64600000000002 116.945 207.75900000000001 97.608 174.55 97.608 C 141.341 97.608 124.43700000000001 116.94500000000001 109.53300000000002 133.999 C 95.36100000000002 150.216 83.11900000000001 164.221 58.116000000000014 164.221 C 33.13000000000001 164.221 20.896000000000015 150.216 6.733000000000011 133.999 C -8.161999999999988 116.945 -25.047999999999988 97.608 -58.22999999999998 97.608 C -91.42999999999998 97.608 -108.32599999999998 116.94500000000001 -123.21999999999997 133.999 C -137.39199999999997 150.216 -149.62499999999997 164.221 -174.61999999999998 164.221 C -199.61499999999998 164.221 -211.83899999999997 150.216 -226.00199999999998 133.999 C -240.897 116.945 -257.78299999999996 97.608 -290.97499999999997 97.608 C -295.95399999999995 97.608 -299.99999999999994 101.64500000000001 -299.99999999999994 106.63300000000001 C -299.99999999999994 111.62100000000001 -295.9549999999999 115.65700000000001 -290.97499999999997 115.65700000000001 C -265.97999999999996 115.65700000000001 -253.75599999999997 129.662 -239.59299999999996 145.87900000000002 C -224.69799999999995 162.93300000000002 -207.81199999999995 182.27 -174.61999999999995 182.27 C -141.42799999999994 182.27 -124.54199999999994 162.93300000000002 -109.62999999999995 145.87900000000002 C -95.46699999999996 129.66200000000003 -83.23399999999995 115.65700000000001 -58.229999999999954 115.65700000000001 C -33.25299999999996 115.65700000000001 -21.019999999999953 129.662 -6.865999999999957 145.87 C 8.038000000000043 162.933 24.925000000000043 182.269 58.11600000000004 182.269 C 91.31500000000004 182.269 108.22000000000004 162.93200000000002 123.12300000000005 145.87800000000001 C 137.29600000000005 129.661 149.53700000000003 115.656 174.55000000000004 115.656 C 199.56300000000005 115.656 211.79500000000004 129.661 225.96800000000005 145.87800000000001 C 240.88000000000005 162.93200000000002 257.76700000000005 182.269 290.975 182.269 C 295.964 182.27100000000002 300 178.233 300 173.245 z" stroke-linecap="round" />
</g>
<g transform="matrix(4.05 0 0 0.96 638.73 357.63)" id="88hLdEF5neLCr6J_631EV"  >
<path style="stroke: none; stroke-width: 0; stroke-dasharray: none; stroke-linecap: butt; stroke-dashoffset: 0; stroke-linejoin: miter; stroke-miterlimit: 4; fill: rgb(53,94,59); fill-rule: nonzero; opacity: 1;" vector-effect="non-scaling-stroke"  transform=" translate(0, 0)" d="M 290.975 -97.608 C 257.76700000000005 -97.608 240.88000000000002 -116.94500000000001 225.96800000000002 -133.999 C 211.79500000000002 -150.216 199.56300000000002 -164.22 174.55 -164.22 C 149.537 -164.22 137.29600000000002 -150.216 123.12300000000002 -133.999 C 108.22000000000001 -116.945 91.31500000000003 -97.608 58.116000000000014 -97.608 C 24.92500000000001 -97.608 8.038000000000011 -116.94500000000001 -6.8659999999999854 -134.007 C -21.019999999999985 -150.215 -33.252999999999986 -164.219 -58.22999999999998 -164.219 C -83.23399999999998 -164.219 -95.46699999999998 -150.215 -109.62999999999998 -133.998 C -124.54299999999998 -116.94399999999999 -141.42899999999997 -97.607 -174.61999999999998 -97.607 C -207.81099999999998 -97.607 -224.69799999999998 -116.944 -239.59299999999996 -133.998 C -253.75599999999997 -150.21599999999998 -265.97999999999996 -164.22 -290.97499999999997 -164.22 C -295.95399999999995 -164.22 -299.99999999999994 -168.257 -299.99999999999994 -173.245 C -299.99999999999994 -178.234 -295.9549999999999 -182.27 -290.97499999999997 -182.27 C -257.784 -182.27 -240.89699999999996 -162.93300000000002 -226.00199999999995 -145.87900000000002 C -211.83899999999994 -129.66200000000003 -199.61499999999995 -115.65800000000002 -174.61999999999995 -115.65800000000002 C -149.62499999999994 -115.65800000000002 -137.39299999999994 -129.662 -123.21999999999994 -145.87900000000002 C -108.32499999999995 -162.93300000000002 -91.42999999999995 -182.27 -58.22999999999995 -182.27 C -25.047999999999945 -182.27 -8.160999999999945 -162.93300000000002 6.733000000000047 -145.87900000000002 C 20.896000000000047 -129.66200000000003 33.12900000000005 -115.65800000000002 58.11600000000005 -115.65800000000002 C 83.11900000000006 -115.65800000000002 95.36100000000005 -129.662 109.53300000000004 -145.87900000000002 C 124.43600000000005 -162.93300000000002 141.34100000000004 -182.27 174.55000000000004 -182.27 C 207.75900000000004 -182.27 224.64600000000004 -162.93300000000002 239.55800000000005 -145.87900000000002 C 253.73000000000005 -129.66200000000003 265.9630000000001 -115.65800000000002 290.975 -115.65800000000002 C 295.964 -115.65800000000002 300 -111.62100000000001 300 -106.63300000000001 C 300 -101.64500000000001 295.964 -97.608 290.975 -97.608 z M 300 33.306 C 300 28.317999999999998 295.964 24.281999999999996 290.975 24.281999999999996 C 265.963 24.281999999999996 253.73000000000002 10.276999999999996 239.55800000000002 -5.940000000000005 C 224.64600000000002 -22.994000000000003 207.75900000000001 -42.331 174.55 -42.331 C 141.341 -42.331 124.43700000000001 -22.994000000000003 109.53300000000002 -5.940000000000005 C 95.36100000000002 10.276999999999994 83.11900000000001 24.281999999999996 58.116000000000014 24.281999999999996 C 33.13000000000001 24.281999999999996 20.896000000000015 10.276999999999996 6.733000000000011 -5.940000000000005 C -8.161999999999988 -22.994000000000003 -25.047999999999988 -42.331 -58.22999999999998 -42.331 C -91.42999999999998 -42.331 -108.32599999999998 -22.994000000000003 -123.21999999999997 -5.940000000000005 C -137.39199999999997 10.276999999999994 -149.62499999999997 24.281999999999996 -174.61999999999998 24.281999999999996 C -199.61499999999998 24.281999999999996 -211.83899999999997 10.276999999999996 -226.00199999999998 -5.940000000000005 C -240.897 -22.994000000000003 -257.78299999999996 -42.331 -290.97499999999997 -42.331 C -295.95399999999995 -42.331 -299.99999999999994 -38.294000000000004 -299.99999999999994 -33.306000000000004 C -299.99999999999994 -28.318000000000005 -295.9549999999999 -24.281000000000006 -290.97499999999997 -24.281000000000006 C -265.97999999999996 -24.281000000000006 -253.75599999999997 -10.277000000000006 -239.59299999999996 5.939999999999994 C -224.69799999999995 22.993999999999993 -207.81199999999995 42.33099999999999 -174.61999999999995 42.33099999999999 C -141.42799999999994 42.33099999999999 -124.54199999999994 22.99399999999999 -109.62999999999995 5.939999999999991 C -95.46699999999996 -10.277000000000008 -83.23399999999995 -24.28100000000001 -58.229999999999954 -24.28100000000001 C -33.25299999999996 -24.28100000000001 -21.019999999999953 -10.27700000000001 -6.865999999999957 5.93099999999999 C 8.038000000000043 22.99399999999999 24.925000000000043 42.32999999999999 58.11600000000004 42.32999999999999 C 91.31500000000004 42.32999999999999 108.22000000000004 22.99299999999999 123.12300000000005 5.938999999999993 C 137.29600000000005 -10.278000000000006 149.53700000000003 -24.282000000000007 174.55000000000004 -24.282000000000007 C 199.56300000000005 -24.282000000000007 211.79500000000004 -10.278000000000008 225.96800000000005 5.938999999999993 C 240.88000000000005 22.99299999999999 257.76700000000005 42.32999999999999 290.975 42.32999999999999 C 295.964 42.33099999999999 300 38.29399999999999 300 33.30599999999999 z M 300 173.245 C 300 168.257 295.964 164.221 290.975 164.221 C 265.963 164.221 253.73000000000002 150.216 239.55800000000002 133.999 C 224.64600000000002 116.945 207.75900000000001 97.608 174.55 97.608 C 141.341 97.608 124.43700000000001 116.94500000000001 109.53300000000002 133.999 C 95.36100000000002 150.216 83.11900000000001 164.221 58.116000000000014 164.221 C 33.13000000000001 164.221 20.896000000000015 150.216 6.733000000000011 133.999 C -8.161999999999988 116.945 -25.047999999999988 97.608 -58.22999999999998 97.608 C -91.42999999999998 97.608 -108.32599999999998 116.94500000000001 -123.21999999999997 133.999 C -137.39199999999997 150.216 -149.62499999999997 164.221 -174.61999999999998 164.221 C -199.61499999999998 164.221 -211.83899999999997 150.216 -226.00199999999998 133.999 C -240.897 116.945 -257.78299999999996 97.608 -290.97499999999997 97.608 C -295.95399999999995 97.608 -299.99999999999994 101.64500000000001 -299.99999999999994 106.63300000000001 C -299.99999999999994 111.62100000000001 -295.9549999999999 115.65700000000001 -290.97499999999997 115.65700000000001 C -265.97999999999996 115.65700000000001 -253.75599999999997 129.662 -239.59299999999996 145.87900000000002 C -224.69799999999995 162.93300000000002 -207.81199999999995 182.27 -174.61999999999995 182.27 C -141.42799999999994 182.27 -124.54199999999994 162.93300000000002 -109.62999999999995 145.87900000000002 C -95.46699999999996 129.66200000000003 -83.23399999999995 115.65700000000001 -58.229999999999954 115.65700000000001 C -33.25299999999996 115.65700000000001 -21.019999999999953 129.662 -6.865999999999957 145.87 C 8.038000000000043 162.933 24.925000000000043 182.269 58.11600000000004 182.269 C 91.31500000000004 182.269 108.22000000000004 162.93200000000002 123.12300000000005 145.87800000000001 C 137.29600000000005 129.661 149.53700000000003 115.656 174.55000000000004 115.656 C 199.56300000000005 115.656 211.79500000000004 129.661 225.96800000000005 145.87800000000001 C 240.88000000000005 162.93200000000002 257.76700000000005 182.269 290.975 182.269 C 295.964 182.27100000000002 300 178.233 300 173.245 z" stroke-linecap="round" />
</g>
<g transform="matrix(4.05 0 0 0.96 638.73 366.45)" id="eHg_PEWLJvnrCjarGW252"  >
<path style="stroke: none; stroke-width: 0; stroke-dasharray: none; stroke-linecap: butt; stroke-dashoffset: 0; stroke-linejoin: miter; stroke-miterlimit: 4; fill: rgb(53,94,59); fill-rule: nonzero; opacity: 1;" vector-effect="non-scaling-stroke"  transform=" translate(0, 0)" d="M 290.975 -97.608 C 257.76700000000005 -97.608 240.88000000000002 -116.94500000000001 225.96800000000002 -133.999 C 211.79500000000002 -150.216 199.56300000000002 -164.22 174.55 -164.22 C 149.537 -164.22 137.29600000000002 -150.216 123.12300000000002 -133.999 C 108.22000000000001 -116.945 91.31500000000003 -97.608 58.116000000000014 -97.608 C 24.92500000000001 -97.608 8.038000000000011 -116.94500000000001 -6.8659999999999854 -134.007 C -21.019999999999985 -150.215 -33.252999999999986 -164.219 -58.22999999999998 -164.219 C -83.23399999999998 -164.219 -95.46699999999998 -150.215 -109.62999999999998 -133.998 C -124.54299999999998 -116.94399999999999 -141.42899999999997 -97.607 -174.61999999999998 -97.607 C -207.81099999999998 -97.607 -224.69799999999998 -116.944 -239.59299999999996 -133.998 C -253.75599999999997 -150.21599999999998 -265.97999999999996 -164.22 -290.97499999999997 -164.22 C -295.95399999999995 -164.22 -299.99999999999994 -168.257 -299.99999999999994 -173.245 C -299.99999999999994 -178.234 -295.9549999999999 -182.27 -290.97499999999997 -182.27 C -257.784 -182.27 -240.89699999999996 -162.93300000000002 -226.00199999999995 -145.87900000000002 C -211.83899999999994 -129.66200000000003 -199.61499999999995 -115.65800000000002 -174.61999999999995 -115.65800000000002 C -149.62499999999994 -115.65800000000002 -137.39299999999994 -129.662 -123.21999999999994 -145.87900000000002 C -108.32499999999995 -162.93300000000002 -91.42999999999995 -182.27 -58.22999999999995 -182.27 C -25.047999999999945 -182.27 -8.160999999999945 -162.93300000000002 6.733000000000047 -145.87900000000002 C 20.896000000000047 -129.66200000000003 33.12900000000005 -115.65800000000002 58.11600000000005 -115.65800000000002 C 83.11900000000006 -115.65800000000002 95.36100000000005 -129.662 109.53300000000004 -145.87900000000002 C 124.43600000000005 -162.93300000000002 141.34100000000004 -182.27 174.55000000000004 -182.27 C 207.75900000000004 -182.27 224.64600000000004 -162.93300000000002 239.55800000000005 -145.87900000000002 C 253.73000000000005 -129.66200000000003 265.9630000000001 -115.65800000000002 290.975 -115.65800000000002 C 295.964 -115.65800000000002 300 -111.62100000000001 300 -106.63300000000001 C 300 -101.64500000000001 295.964 -97.608 290.975 -97.608 z M 300 33.306 C 300 28.317999999999998 295.964 24.281999999999996 290.975 24.281999999999996 C 265.963 24.281999999999996 253.73000000000002 10.276999999999996 239.55800000000002 -5.940000000000005 C 224.64600000000002 -22.994000000000003 207.75900000000001 -42.331 174.55 -42.331 C 141.341 -42.331 124.43700000000001 -22.994000000000003 109.53300000000002 -5.940000000000005 C 95.36100000000002 10.276999999999994 83.11900000000001 24.281999999999996 58.116000000000014 24.281999999999996 C 33.13000000000001 24.281999999999996 20.896000000000015 10.276999999999996 6.733000000000011 -5.940000000000005 C -8.161999999999988 -22.994000000000003 -25.047999999999988 -42.331 -58.22999999999998 -42.331 C -91.42999999999998 -42.331 -108.32599999999998 -22.994000000000003 -123.21999999999997 -5.940000000000005 C -137.39199999999997 10.276999999999994 -149.62499999999997 24.281999999999996 -174.61999999999998 24.281999999999996 C -199.61499999999998 24.281999999999996 -211.83899999999997 10.276999999999996 -226.00199999999998 -5.940000000000005 C -240.897 -22.994000000000003 -257.78299999999996 -42.331 -290.97499999999997 -42.331 C -295.95399999999995 -42.331 -299.99999999999994 -38.294000000000004 -299.99999999999994 -33.306000000000004 C -299.99999999999994 -28.318000000000005 -295.9549999999999 -24.281000000000006 -290.97499999999997 -24.281000000000006 C -265.97999999999996 -24.281000000000006 -253.75599999999997 -10.277000000000006 -239.59299999999996 5.939999999999994 C -224.69799999999995 22.993999999999993 -207.81199999999995 42.33099999999999 -174.61999999999995 42.33099999999999 C -141.42799999999994 42.33099999999999 -124.54199999999994 22.99399999999999 -109.62999999999995 5.939999999999991 C -95.46699999999996 -10.277000000000008 -83.23399999999995 -24.28100000000001 -58.229999999999954 -24.28100000000001 C -33.25299999999996 -24.28100000000001 -21.019999999999953 -10.27700000000001 -6.865999999999957 5.93099999999999 C 8.038000000000043 22.99399999999999 24.925000000000043 42.32999999999999 58.11600000000004 42.32999999999999 C 91.31500000000004 42.32999999999999 108.22000000000004 22.99299999999999 123.12300000000005 5.938999999999993 C 137.29600000000005 -10.278000000000006 149.53700000000003 -24.282000000000007 174.55000000000004 -24.282000000000007 C 199.56300000000005 -24.282000000000007 211.79500000000004 -10.278000000000008 225.96800000000005 5.938999999999993 C 240.88000000000005 22.99299999999999 257.76700000000005 42.32999999999999 290.975 42.32999999999999 C 295.964 42.33099999999999 300 38.29399999999999 300 33.30599999999999 z M 300 173.245 C 300 168.257 295.964 164.221 290.975 164.221 C 265.963 164.221 253.73000000000002 150.216 239.55800000000002 133.999 C 224.64600000000002 116.945 207.75900000000001 97.608 174.55 97.608 C 141.341 97.608 124.43700000000001 116.94500000000001 109.53300000000002 133.999 C 95.36100000000002 150.216 83.11900000000001 164.221 58.116000000000014 164.221 C 33.13000000000001 164.221 20.896000000000015 150.216 6.733000000000011 133.999 C -8.161999999999988 116.945 -25.047999999999988 97.608 -58.22999999999998 97.608 C -91.42999999999998 97.608 -108.32599999999998 116.94500000000001 -123.21999999999997 133.999 C -137.39199999999997 150.216 -149.62499999999997 164.221 -174.61999999999998 164.221 C -199.61499999999998 164.221 -211.83899999999997 150.216 -226.00199999999998 133.999 C -240.897 116.945 -257.78299999999996 97.608 -290.97499999999997 97.608 C -295.95399999999995 97.608 -299.99999999999994 101.64500000000001 -299.99999999999994 106.63300000000001 C -299.99999999999994 111.62100000000001 -295.9549999999999 115.65700000000001 -290.97499999999997 115.65700000000001 C -265.97999999999996 115.65700000000001 -253.75599999999997 129.662 -239.59299999999996 145.87900000000002 C -224.69799999999995 162.93300000000002 -207.81199999999995 182.27 -174.61999999999995 182.27 C -141.42799999999994 182.27 -124.54199999999994 162.93300000000002 -109.62999999999995 145.87900000000002 C -95.46699999999996 129.66200000000003 -83.23399999999995 115.65700000000001 -58.229999999999954 115.65700000000001 C -33.25299999999996 115.65700000000001 -21.019999999999953 129.662 -6.865999999999957 145.87 C 8.038000000000043 162.933 24.925000000000043 182.269 58.11600000000004 182.269 C 91.31500000000004 182.269 108.22000000000004 162.93200000000002 123.12300000000005 145.87800000000001 C 137.29600000000005 129.661 149.53700000000003 115.656 174.55000000000004 115.656 C 199.56300000000005 115.656 211.79500000000004 129.661 225.96800000000005 145.87800000000001 C 240.88000000000005 162.93200000000002 257.76700000000005 182.269 290.975 182.269 C 295.964 182.27100000000002 300 178.233 300 173.245 z" stroke-linecap="round" />
</g>
<g transform="matrix(4.05 0 0 0.96 636.99 376.83)" id="hy5I3wse6Y-I-_EyHc2-2"  >
<path style="stroke: none; stroke-width: 0; stroke-dasharray: none; stroke-linecap: butt; stroke-dashoffset: 0; stroke-linejoin: miter; stroke-miterlimit: 4; fill: rgb(53,94,59); fill-rule: nonzero; opacity: 1;" vector-effect="non-scaling-stroke"  transform=" translate(0, 0)" d="M 290.975 -97.608 C 257.76700000000005 -97.608 240.88000000000002 -116.94500000000001 225.96800000000002 -133.999 C 211.79500000000002 -150.216 199.56300000000002 -164.22 174.55 -164.22 C 149.537 -164.22 137.29600000000002 -150.216 123.12300000000002 -133.999 C 108.22000000000001 -116.945 91.31500000000003 -97.608 58.116000000000014 -97.608 C 24.92500000000001 -97.608 8.038000000000011 -116.94500000000001 -6.8659999999999854 -134.007 C -21.019999999999985 -150.215 -33.252999999999986 -164.219 -58.22999999999998 -164.219 C -83.23399999999998 -164.219 -95.46699999999998 -150.215 -109.62999999999998 -133.998 C -124.54299999999998 -116.94399999999999 -141.42899999999997 -97.607 -174.61999999999998 -97.607 C -207.81099999999998 -97.607 -224.69799999999998 -116.944 -239.59299999999996 -133.998 C -253.75599999999997 -150.21599999999998 -265.97999999999996 -164.22 -290.97499999999997 -164.22 C -295.95399999999995 -164.22 -299.99999999999994 -168.257 -299.99999999999994 -173.245 C -299.99999999999994 -178.234 -295.9549999999999 -182.27 -290.97499999999997 -182.27 C -257.784 -182.27 -240.89699999999996 -162.93300000000002 -226.00199999999995 -145.87900000000002 C -211.83899999999994 -129.66200000000003 -199.61499999999995 -115.65800000000002 -174.61999999999995 -115.65800000000002 C -149.62499999999994 -115.65800000000002 -137.39299999999994 -129.662 -123.21999999999994 -145.87900000000002 C -108.32499999999995 -162.93300000000002 -91.42999999999995 -182.27 -58.22999999999995 -182.27 C -25.047999999999945 -182.27 -8.160999999999945 -162.93300000000002 6.733000000000047 -145.87900000000002 C 20.896000000000047 -129.66200000000003 33.12900000000005 -115.65800000000002 58.11600000000005 -115.65800000000002 C 83.11900000000006 -115.65800000000002 95.36100000000005 -129.662 109.53300000000004 -145.87900000000002 C 124.43600000000005 -162.93300000000002 141.34100000000004 -182.27 174.55000000000004 -182.27 C 207.75900000000004 -182.27 224.64600000000004 -162.93300000000002 239.55800000000005 -145.87900000000002 C 253.73000000000005 -129.66200000000003 265.9630000000001 -115.65800000000002 290.975 -115.65800000000002 C 295.964 -115.65800000000002 300 -111.62100000000001 300 -106.63300000000001 C 300 -101.64500000000001 295.964 -97.608 290.975 -97.608 z M 300 33.306 C 300 28.317999999999998 295.964 24.281999999999996 290.975 24.281999999999996 C 265.963 24.281999999999996 253.73000000000002 10.276999999999996 239.55800000000002 -5.940000000000005 C 224.64600000000002 -22.994000000000003 207.75900000000001 -42.331 174.55 -42.331 C 141.341 -42.331 124.43700000000001 -22.994000000000003 109.53300000000002 -5.940000000000005 C 95.36100000000002 10.276999999999994 83.11900000000001 24.281999999999996 58.116000000000014 24.281999999999996 C 33.13000000000001 24.281999999999996 20.896000000000015 10.276999999999996 6.733000000000011 -5.940000000000005 C -8.161999999999988 -22.994000000000003 -25.047999999999988 -42.331 -58.22999999999998 -42.331 C -91.42999999999998 -42.331 -108.32599999999998 -22.994000000000003 -123.21999999999997 -5.940000000000005 C -137.39199999999997 10.276999999999994 -149.62499999999997 24.281999999999996 -174.61999999999998 24.281999999999996 C -199.61499999999998 24.281999999999996 -211.83899999999997 10.276999999999996 -226.00199999999998 -5.940000000000005 C -240.897 -22.994000000000003 -257.78299999999996 -42.331 -290.97499999999997 -42.331 C -295.95399999999995 -42.331 -299.99999999999994 -38.294000000000004 -299.99999999999994 -33.306000000000004 C -299.99999999999994 -28.318000000000005 -295.9549999999999 -24.281000000000006 -290.97499999999997 -24.281000000000006 C -265.97999999999996 -24.281000000000006 -253.75599999999997 -10.277000000000006 -239.59299999999996 5.939999999999994 C -224.69799999999995 22.993999999999993 -207.81199999999995 42.33099999999999 -174.61999999999995 42.33099999999999 C -141.42799999999994 42.33099999999999 -124.54199999999994 22.99399999999999 -109.62999999999995 5.939999999999991 C -95.46699999999996 -10.277000000000008 -83.23399999999995 -24.28100000000001 -58.229999999999954 -24.28100000000001 C -33.25299999999996 -24.28100000000001 -21.019999999999953 -10.27700000000001 -6.865999999999957 5.93099999999999 C 8.038000000000043 22.99399999999999 24.925000000000043 42.32999999999999 58.11600000000004 42.32999999999999 C 91.31500000000004 42.32999999999999 108.22000000000004 22.99299999999999 123.12300000000005 5.938999999999993 C 137.29600000000005 -10.278000000000006 149.53700000000003 -24.282000000000007 174.55000000000004 -24.282000000000007 C 199.56300000000005 -24.282000000000007 211.79500000000004 -10.278000000000008 225.96800000000005 5.938999999999993 C 240.88000000000005 22.99299999999999 257.76700000000005 42.32999999999999 290.975 42.32999999999999 C 295.964 42.33099999999999 300 38.29399999999999 300 33.30599999999999 z M 300 173.245 C 300 168.257 295.964 164.221 290.975 164.221 C 265.963 164.221 253.73000000000002 150.216 239.55800000000002 133.999 C 224.64600000000002 116.945 207.75900000000001 97.608 174.55 97.608 C 141.341 97.608 124.43700000000001 116.94500000000001 109.53300000000002 133.999 C 95.36100000000002 150.216 83.11900000000001 164.221 58.116000000000014 164.221 C 33.13000000000001 164.221 20.896000000000015 150.216 6.733000000000011 133.999 C -8.161999999999988 116.945 -25.047999999999988 97.608 -58.22999999999998 97.608 C -91.42999999999998 97.608 -108.32599999999998 116.94500000000001 -123.21999999999997 133.999 C -137.39199999999997 150.216 -149.62499999999997 164.221 -174.61999999999998 164.221 C -199.61499999999998 164.221 -211.83899999999997 150.216 -226.00199999999998 133.999 C -240.897 116.945 -257.78299999999996 97.608 -290.97499999999997 97.608 C -295.95399999999995 97.608 -299.99999999999994 101.64500000000001 -299.99999999999994 106.63300000000001 C -299.99999999999994 111.62100000000001 -295.9549999999999 115.65700000000001 -290.97499999999997 115.65700000000001 C -265.97999999999996 115.65700000000001 -253.75599999999997 129.662 -239.59299999999996 145.87900000000002 C -224.69799999999995 162.93300000000002 -207.81199999999995 182.27 -174.61999999999995 182.27 C -141.42799999999994 182.27 -124.54199999999994 162.93300000000002 -109.62999999999995 145.87900000000002 C -95.46699999999996 129.66200000000003 -83.23399999999995 115.65700000000001 -58.229999999999954 115.65700000000001 C -33.25299999999996 115.65700000000001 -21.019999999999953 129.662 -6.865999999999957 145.87 C 8.038000000000043 162.933 24.925000000000043 182.269 58.11600000000004 182.269 C 91.31500000000004 182.269 108.22000000000004 162.93200000000002 123.12300000000005 145.87800000000001 C 137.29600000000005 129.661 149.53700000000003 115.656 174.55000000000004 115.656 C 199.56300000000005 115.656 211.79500000000004 129.661 225.96800000000005 145.87800000000001 C 240.88000000000005 162.93200000000002 257.76700000000005 182.269 290.975 182.269 C 295.964 182.27100000000002 300 178.233 300 173.245 z" stroke-linecap="round" />
</g>
<g transform="matrix(4.05 0 0 0.96 636.99 388.27)" id="2UdiJF6uzMGShEZ9j3yCP"  >
<path style="stroke: none; stroke-width: 0; stroke-dasharray: none; stroke-linecap: butt; stroke-dashoffset: 0; stroke-linejoin: miter; stroke-miterlimit: 4; fill: rgb(53,94,59); fill-rule: nonzero; opacity: 1;" vector-effect="non-scaling-stroke"  transform=" translate(0, 0)" d="M 290.975 -97.608 C 257.76700000000005 -97.608 240.88000000000002 -116.94500000000001 225.96800000000002 -133.999 C 211.79500000000002 -150.216 199.56300000000002 -164.22 174.55 -164.22 C 149.537 -164.22 137.29600000000002 -150.216 123.12300000000002 -133.999 C 108.22000000000001 -116.945 91.31500000000003 -97.608 58.116000000000014 -97.608 C 24.92500000000001 -97.608 8.038000000000011 -116.94500000000001 -6.8659999999999854 -134.007 C -21.019999999999985 -150.215 -33.252999999999986 -164.219 -58.22999999999998 -164.219 C -83.23399999999998 -164.219 -95.46699999999998 -150.215 -109.62999999999998 -133.998 C -124.54299999999998 -116.94399999999999 -141.42899999999997 -97.607 -174.61999999999998 -97.607 C -207.81099999999998 -97.607 -224.69799999999998 -116.944 -239.59299999999996 -133.998 C -253.75599999999997 -150.21599999999998 -265.97999999999996 -164.22 -290.97499999999997 -164.22 C -295.95399999999995 -164.22 -299.99999999999994 -168.257 -299.99999999999994 -173.245 C -299.99999999999994 -178.234 -295.9549999999999 -182.27 -290.97499999999997 -182.27 C -257.784 -182.27 -240.89699999999996 -162.93300000000002 -226.00199999999995 -145.87900000000002 C -211.83899999999994 -129.66200000000003 -199.61499999999995 -115.65800000000002 -174.61999999999995 -115.65800000000002 C -149.62499999999994 -115.65800000000002 -137.39299999999994 -129.662 -123.21999999999994 -145.87900000000002 C -108.32499999999995 -162.93300000000002 -91.42999999999995 -182.27 -58.22999999999995 -182.27 C -25.047999999999945 -182.27 -8.160999999999945 -162.93300000000002 6.733000000000047 -145.87900000000002 C 20.896000000000047 -129.66200000000003 33.12900000000005 -115.65800000000002 58.11600000000005 -115.65800000000002 C 83.11900000000006 -115.65800000000002 95.36100000000005 -129.662 109.53300000000004 -145.87900000000002 C 124.43600000000005 -162.93300000000002 141.34100000000004 -182.27 174.55000000000004 -182.27 C 207.75900000000004 -182.27 224.64600000000004 -162.93300000000002 239.55800000000005 -145.87900000000002 C 253.73000000000005 -129.66200000000003 265.9630000000001 -115.65800000000002 290.975 -115.65800000000002 C 295.964 -115.65800000000002 300 -111.62100000000001 300 -106.63300000000001 C 300 -101.64500000000001 295.964 -97.608 290.975 -97.608 z M 300 33.306 C 300 28.317999999999998 295.964 24.281999999999996 290.975 24.281999999999996 C 265.963 24.281999999999996 253.73000000000002 10.276999999999996 239.55800000000002 -5.940000000000005 C 224.64600000000002 -22.994000000000003 207.75900000000001 -42.331 174.55 -42.331 C 141.341 -42.331 124.43700000000001 -22.994000000000003 109.53300000000002 -5.940000000000005 C 95.36100000000002 10.276999999999994 83.11900000000001 24.281999999999996 58.116000000000014 24.281999999999996 C 33.13000000000001 24.281999999999996 20.896000000000015 10.276999999999996 6.733000000000011 -5.940000000000005 C -8.161999999999988 -22.994000000000003 -25.047999999999988 -42.331 -58.22999999999998 -42.331 C -91.42999999999998 -42.331 -108.32599999999998 -22.994000000000003 -123.21999999999997 -5.940000000000005 C -137.39199999999997 10.276999999999994 -149.62499999999997 24.281999999999996 -174.61999999999998 24.281999999999996 C -199.61499999999998 24.281999999999996 -211.83899999999997 10.276999999999996 -226.00199999999998 -5.940000000000005 C -240.897 -22.994000000000003 -257.78299999999996 -42.331 -290.97499999999997 -42.331 C -295.95399999999995 -42.331 -299.99999999999994 -38.294000000000004 -299.99999999999994 -33.306000000000004 C -299.99999999999994 -28.318000000000005 -295.9549999999999 -24.281000000000006 -290.97499999999997 -24.281000000000006 C -265.97999999999996 -24.281000000000006 -253.75599999999997 -10.277000000000006 -239.59299999999996 5.939999999999994 C -224.69799999999995 22.993999999999993 -207.81199999999995 42.33099999999999 -174.61999999999995 42.33099999999999 C -141.42799999999994 42.33099999999999 -124.54199999999994 22.99399999999999 -109.62999999999995 5.939999999999991 C -95.46699999999996 -10.277000000000008 -83.23399999999995 -24.28100000000001 -58.229999999999954 -24.28100000000001 C -33.25299999999996 -24.28100000000001 -21.019999999999953 -10.27700000000001 -6.865999999999957 5.93099999999999 C 8.038000000000043 22.99399999999999 24.925000000000043 42.32999999999999 58.11600000000004 42.32999999999999 C 91.31500000000004 42.32999999999999 108.22000000000004 22.99299999999999 123.12300000000005 5.938999999999993 C 137.29600000000005 -10.278000000000006 149.53700000000003 -24.282000000000007 174.55000000000004 -24.282000000000007 C 199.56300000000005 -24.282000000000007 211.79500000000004 -10.278000000000008 225.96800000000005 5.938999999999993 C 240.88000000000005 22.99299999999999 257.76700000000005 42.32999999999999 290.975 42.32999999999999 C 295.964 42.33099999999999 300 38.29399999999999 300 33.30599999999999 z M 300 173.245 C 300 168.257 295.964 164.221 290.975 164.221 C 265.963 164.221 253.73000000000002 150.216 239.55800000000002 133.999 C 224.64600000000002 116.945 207.75900000000001 97.608 174.55 97.608 C 141.341 97.608 124.43700000000001 116.94500000000001 109.53300000000002 133.999 C 95.36100000000002 150.216 83.11900000000001 164.221 58.116000000000014 164.221 C 33.13000000000001 164.221 20.896000000000015 150.216 6.733000000000011 133.999 C -8.161999999999988 116.945 -25.047999999999988 97.608 -58.22999999999998 97.608 C -91.42999999999998 97.608 -108.32599999999998 116.94500000000001 -123.21999999999997 133.999 C -137.39199999999997 150.216 -149.62499999999997 164.221 -174.61999999999998 164.221 C -199.61499999999998 164.221 -211.83899999999997 150.216 -226.00199999999998 133.999 C -240.897 116.945 -257.78299999999996 97.608 -290.97499999999997 97.608 C -295.95399999999995 97.608 -299.99999999999994 101.64500000000001 -299.99999999999994 106.63300000000001 C -299.99999999999994 111.62100000000001 -295.9549999999999 115.65700000000001 -290.97499999999997 115.65700000000001 C -265.97999999999996 115.65700000000001 -253.75599999999997 129.662 -239.59299999999996 145.87900000000002 C -224.69799999999995 162.93300000000002 -207.81199999999995 182.27 -174.61999999999995 182.27 C -141.42799999999994 182.27 -124.54199999999994 162.93300000000002 -109.62999999999995 145.87900000000002 C -95.46699999999996 129.66200000000003 -83.23399999999995 115.65700000000001 -58.229999999999954 115.65700000000001 C -33.25299999999996 115.65700000000001 -21.019999999999953 129.662 -6.865999999999957 145.87 C 8.038000000000043 162.933 24.925000000000043 182.269 58.11600000000004 182.269 C 91.31500000000004 182.269 108.22000000000004 162.93200000000002 123.12300000000005 145.87800000000001 C 137.29600000000005 129.661 149.53700000000003 115.656 174.55000000000004 115.656 C 199.56300000000005 115.656 211.79500000000004 129.661 225.96800000000005 145.87800000000001 C 240.88000000000005 162.93200000000002 257.76700000000005 182.269 290.975 182.269 C 295.964 182.27100000000002 300 178.233 300 173.245 z" stroke-linecap="round" />
</g>
</svg>